<svg xmlns="http://www.w3.org/2000/svg" width="918" height="292" viewBox="0 0 918 292" font-family="ui-monospace, SFMono-Regular, Menlo, Consolas, monospace">
<style>
  text.lbl { fill:#7d8590; font-size:12px; font-weight:600; font-family:-apple-system,BlinkMacSystemFont,Segoe UI,Helvetica,Arial,sans-serif; }
  text.stat-text { fill:#8b949e; font-size:13px; font-family:ui-monospace, SFMono-Regular, Menlo, Consolas, monospace; }
  .c { transform-box:fill-box; transform-origin:center; opacity:0; animation:pop 0.55s ease-out both; }
  .g { animation:pop 0.55s ease-out both, flash 0.7000000000000001s ease-out both; }
  @keyframes pop { 0%{opacity:0;transform:scale(.2)} 60%{opacity:1;transform:scale(1.1)} 100%{opacity:1;transform:scale(1)} }
  @keyframes flash { 0%{filter:brightness(2.4)} 45%{filter:brightness(2.4)} 100%{filter:brightness(1)} }
  @media (prefers-reduced-motion: reduce) { .c { opacity:1 !important; animation:none !important; } }
</style>
<defs>
  <linearGradient id="bg" x1="0" y1="0" x2="0" y2="1">
    <stop offset="0" stop-color="#111722"/><stop offset="1" stop-color="#0d1117"/>
  </linearGradient>
</defs>
<rect width="918" height="292" rx="12" fill="url(#bg)"/>
<rect x="0.5" y="0.5" width="917" height="291" rx="12" fill="none" stroke="#30363d"/>
<line x1="0" y1="30" x2="918" y2="30" stroke="#30363d" stroke-width="1"/>
<circle cx="20" cy="15.0" r="5" fill="#ff5f56"/>
<circle cx="36" cy="15.0" r="5" fill="#ffbd2e"/>
<circle cx="52" cy="15.0" r="5" fill="#27c93f"/>
<text x="459.0" y="19.0" fill="#7d8590" font-size="12" text-anchor="middle">mahesh@github: ~/contributions --graph</text>
<text class="lbl" x="45" y="57">Jul</text><text class="lbl" x="93" y="57">Aug</text><text class="lbl" x="173" y="57">Sep</text><text class="lbl" x="237" y="57">Oct</text><text class="lbl" x="301" y="57">Nov</text><text class="lbl" x="381" y="57">Dec</text><text class="lbl" x="445" y="57">Jan</text><text class="lbl" x="509" y="57">Feb</text><text class="lbl" x="573" y="57">Mar</text><text class="lbl" x="653" y="57">Apr</text><text class="lbl" x="717" y="57">May</text><text class="lbl" x="797" y="57">Jun</text><text class="lbl" x="861" y="57">Jul</text><text class="lbl" x="15" y="92">Mon</text><text class="lbl" x="15" y="124">Wed</text><text class="lbl" x="15" y="156">Fri</text><text class="lbl" x="738" y="197">Less</text><rect x="773" y="187" width="13" height="13" rx="2.5" fill="#161b22"/><rect x="789" y="187" width="13" height="13" rx="2.5" fill="#0e4429"/><rect x="805" y="187" width="13" height="13" rx="2.5" fill="#006d32"/><rect x="821" y="187" width="13" height="13" rx="2.5" fill="#26a641"/><rect x="837" y="187" width="13" height="13" rx="2.5" fill="#39d353"/><text class="lbl" x="858" y="197">More</text><line x1="0" y1="212" x2="918" y2="212" stroke="#30363d" stroke-width="1"/><text class="stat-text" x="20" y="242"><tspan fill="#3fb950" font-weight="700">562</tspan> contributions in the last year</text><text class="stat-text" x="20" y="267">current streak <tspan fill="#22d3ee" font-weight="700">1 days</tspan> · longest <tspan fill="#22d3ee" font-weight="700">8 days</tspan></text><text class="stat-text" x="898" y="242" text-anchor="end">2025-07-13 → 2026-07-18</text><text class="stat-text" x="898" y="267" text-anchor="end">best day <tspan fill="#ffbd2e" font-weight="700">25</tspan> on 2026-05-10</text>
<rect class="c e" x="45" y="65" width="13" height="13" rx="2.5" fill="#161b22" style="animation-delay:0.0s"/><rect class="c g" x="45" y="81" width="13" height="13" rx="2.5" fill="#0e4429" style="animation-delay:0.036s"/><rect class="c e" x="45" y="97" width="13" height="13" rx="2.5" fill="#161b22" style="animation-delay:0.072s"/><rect class="c e" x="45" y="113" width="13" height="13" rx="2.5" fill="#161b22" style="animation-delay:0.107s"/><rect class="c g" x="45" y="129" width="13" height="13" rx="2.5" fill="#0e4429" style="animation-delay:0.143s"/><rect class="c e" x="45" y="145" width="13" height="13" rx="2.5" fill="#161b22" style="animation-delay:0.179s"/><rect class="c e" x="45" y="161" width="13" height="13" rx="2.5" fill="#161b22" style="animation-delay:0.215s"/><rect class="c e" x="61" y="65" width="13" height="13" rx="2.5" fill="#161b22" style="animation-delay:0.065s"/><rect class="c e" x="61" y="81" width="13" height="13" rx="2.5" fill="#161b22" style="animation-delay:0.101s"/><rect class="c e" x="61" y="97" width="13" height="13" rx="2.5" fill="#161b22" style="animation-delay:0.137s"/><rect class="c e" x="61" y="113" width="13" height="13" rx="2.5" fill="#161b22" style="animation-delay:0.173s"/><rect class="c e" x="61" y="129" width="13" height="13" rx="2.5" fill="#161b22" style="animation-delay:0.208s"/><rect class="c g" x="61" y="145" width="13" height="13" rx="2.5" fill="#0e4429" style="animation-delay:0.244s"/><rect class="c e" x="61" y="161" width="13" height="13" rx="2.5" fill="#161b22" style="animation-delay:0.28s"/><rect class="c e" x="77" y="65" width="13" height="13" rx="2.5" fill="#161b22" style="animation-delay:0.13s"/><rect class="c g" x="77" y="81" width="13" height="13" rx="2.5" fill="#0e4429" style="animation-delay:0.166s"/><rect class="c g" x="77" y="97" width="13" height="13" rx="2.5" fill="#0e4429" style="animation-delay:0.202s"/><rect class="c g" x="77" y="113" width="13" height="13" rx="2.5" fill="#0e4429" style="animation-delay:0.238s"/><rect class="c e" x="77" y="129" width="13" height="13" rx="2.5" fill="#161b22" style="animation-delay:0.273s"/><rect class="c e" x="77" y="145" width="13" height="13" rx="2.5" fill="#161b22" style="animation-delay:0.309s"/><rect class="c e" x="77" y="161" width="13" height="13" rx="2.5" fill="#161b22" style="animation-delay:0.345s"/><rect class="c e" x="93" y="65" width="13" height="13" rx="2.5" fill="#161b22" style="animation-delay:0.195s"/><rect class="c g" x="93" y="81" width="13" height="13" rx="2.5" fill="#0e4429" style="animation-delay:0.231s"/><rect class="c e" x="93" y="97" width="13" height="13" rx="2.5" fill="#161b22" style="animation-delay:0.267s"/><rect class="c e" x="93" y="113" width="13" height="13" rx="2.5" fill="#161b22" style="animation-delay:0.303s"/><rect class="c e" x="93" y="129" width="13" height="13" rx="2.5" fill="#161b22" style="animation-delay:0.339s"/><rect class="c g" x="93" y="145" width="13" height="13" rx="2.5" fill="#0e4429" style="animation-delay:0.374s"/><rect class="c g" x="93" y="161" width="13" height="13" rx="2.5" fill="#0e4429" style="animation-delay:0.41s"/><rect class="c e" x="109" y="65" width="13" height="13" rx="2.5" fill="#161b22" style="animation-delay:0.26s"/><rect class="c e" x="109" y="81" width="13" height="13" rx="2.5" fill="#161b22" style="animation-delay:0.296s"/><rect class="c e" x="109" y="97" width="13" height="13" rx="2.5" fill="#161b22" style="animation-delay:0.332s"/><rect class="c e" x="109" y="113" width="13" height="13" rx="2.5" fill="#161b22" style="animation-delay:0.368s"/><rect class="c e" x="109" y="129" width="13" height="13" rx="2.5" fill="#161b22" style="animation-delay:0.404s"/><rect class="c g" x="109" y="145" width="13" height="13" rx="2.5" fill="#0e4429" style="animation-delay:0.439s"/><rect class="c e" x="109" y="161" width="13" height="13" rx="2.5" fill="#161b22" style="animation-delay:0.475s"/><rect class="c e" x="125" y="65" width="13" height="13" rx="2.5" fill="#161b22" style="animation-delay:0.325s"/><rect class="c g" x="125" y="81" width="13" height="13" rx="2.5" fill="#0e4429" style="animation-delay:0.361s"/><rect class="c g" x="125" y="97" width="13" height="13" rx="2.5" fill="#0e4429" style="animation-delay:0.397s"/><rect class="c e" x="125" y="113" width="13" height="13" rx="2.5" fill="#161b22" style="animation-delay:0.433s"/><rect class="c e" x="125" y="129" width="13" height="13" rx="2.5" fill="#161b22" style="animation-delay:0.469s"/><rect class="c e" x="125" y="145" width="13" height="13" rx="2.5" fill="#161b22" style="animation-delay:0.505s"/><rect class="c e" x="125" y="161" width="13" height="13" rx="2.5" fill="#161b22" style="animation-delay:0.54s"/><rect class="c e" x="141" y="65" width="13" height="13" rx="2.5" fill="#161b22" style="animation-delay:0.391s"/><rect class="c g" x="141" y="81" width="13" height="13" rx="2.5" fill="#0e4429" style="animation-delay:0.426s"/><rect class="c g" x="141" y="97" width="13" height="13" rx="2.5" fill="#0e4429" style="animation-delay:0.462s"/><rect class="c g" x="141" y="113" width="13" height="13" rx="2.5" fill="#0e4429" style="animation-delay:0.498s"/><rect class="c g" x="141" y="129" width="13" height="13" rx="2.5" fill="#0e4429" style="animation-delay:0.534s"/><rect class="c e" x="141" y="145" width="13" height="13" rx="2.5" fill="#161b22" style="animation-delay:0.57s"/><rect class="c e" x="141" y="161" width="13" height="13" rx="2.5" fill="#161b22" style="animation-delay:0.605s"/><rect class="c e" x="157" y="65" width="13" height="13" rx="2.5" fill="#161b22" style="animation-delay:0.456s"/><rect class="c e" x="157" y="81" width="13" height="13" rx="2.5" fill="#161b22" style="animation-delay:0.492s"/><rect class="c e" x="157" y="97" width="13" height="13" rx="2.5" fill="#161b22" style="animation-delay:0.527s"/><rect class="c e" x="157" y="113" width="13" height="13" rx="2.5" fill="#161b22" style="animation-delay:0.563s"/><rect class="c e" x="157" y="129" width="13" height="13" rx="2.5" fill="#161b22" style="animation-delay:0.599s"/><rect class="c e" x="157" y="145" width="13" height="13" rx="2.5" fill="#161b22" style="animation-delay:0.635s"/><rect class="c e" x="157" y="161" width="13" height="13" rx="2.5" fill="#161b22" style="animation-delay:0.671s"/><rect class="c g" x="173" y="65" width="13" height="13" rx="2.5" fill="#0e4429" style="animation-delay:0.521s"/><rect class="c e" x="173" y="81" width="13" height="13" rx="2.5" fill="#161b22" style="animation-delay:0.557s"/><rect class="c e" x="173" y="97" width="13" height="13" rx="2.5" fill="#161b22" style="animation-delay:0.592s"/><rect class="c e" x="173" y="113" width="13" height="13" rx="2.5" fill="#161b22" style="animation-delay:0.628s"/><rect class="c e" x="173" y="129" width="13" height="13" rx="2.5" fill="#161b22" style="animation-delay:0.664s"/><rect class="c e" x="173" y="145" width="13" height="13" rx="2.5" fill="#161b22" style="animation-delay:0.7s"/><rect class="c e" x="173" y="161" width="13" height="13" rx="2.5" fill="#161b22" style="animation-delay:0.736s"/><rect class="c e" x="189" y="65" width="13" height="13" rx="2.5" fill="#161b22" style="animation-delay:0.586s"/><rect class="c e" x="189" y="81" width="13" height="13" rx="2.5" fill="#161b22" style="animation-delay:0.622s"/><rect class="c e" x="189" y="97" width="13" height="13" rx="2.5" fill="#161b22" style="animation-delay:0.658s"/><rect class="c e" x="189" y="113" width="13" height="13" rx="2.5" fill="#161b22" style="animation-delay:0.693s"/><rect class="c e" x="189" y="129" width="13" height="13" rx="2.5" fill="#161b22" style="animation-delay:0.729s"/><rect class="c e" x="189" y="145" width="13" height="13" rx="2.5" fill="#161b22" style="animation-delay:0.765s"/><rect class="c e" x="189" y="161" width="13" height="13" rx="2.5" fill="#161b22" style="animation-delay:0.801s"/><rect class="c g" x="205" y="65" width="13" height="13" rx="2.5" fill="#0e4429" style="animation-delay:0.651s"/><rect class="c e" x="205" y="81" width="13" height="13" rx="2.5" fill="#161b22" style="animation-delay:0.687s"/><rect class="c e" x="205" y="97" width="13" height="13" rx="2.5" fill="#161b22" style="animation-delay:0.723s"/><rect class="c e" x="205" y="113" width="13" height="13" rx="2.5" fill="#161b22" style="animation-delay:0.758s"/><rect class="c e" x="205" y="129" width="13" height="13" rx="2.5" fill="#161b22" style="animation-delay:0.794s"/><rect class="c e" x="205" y="145" width="13" height="13" rx="2.5" fill="#161b22" style="animation-delay:0.83s"/><rect class="c e" x="205" y="161" width="13" height="13" rx="2.5" fill="#161b22" style="animation-delay:0.866s"/><rect class="c e" x="221" y="65" width="13" height="13" rx="2.5" fill="#161b22" style="animation-delay:0.716s"/><rect class="c e" x="221" y="81" width="13" height="13" rx="2.5" fill="#161b22" style="animation-delay:0.752s"/><rect class="c e" x="221" y="97" width="13" height="13" rx="2.5" fill="#161b22" style="animation-delay:0.788s"/><rect class="c e" x="221" y="113" width="13" height="13" rx="2.5" fill="#161b22" style="animation-delay:0.824s"/><rect class="c e" x="221" y="129" width="13" height="13" rx="2.5" fill="#161b22" style="animation-delay:0.859s"/><rect class="c e" x="221" y="145" width="13" height="13" rx="2.5" fill="#161b22" style="animation-delay:0.895s"/><rect class="c g" x="221" y="161" width="13" height="13" rx="2.5" fill="#0e4429" style="animation-delay:0.931s"/><rect class="c e" x="237" y="65" width="13" height="13" rx="2.5" fill="#161b22" style="animation-delay:0.781s"/><rect class="c e" x="237" y="81" width="13" height="13" rx="2.5" fill="#161b22" style="animation-delay:0.817s"/><rect class="c e" x="237" y="97" width="13" height="13" rx="2.5" fill="#161b22" style="animation-delay:0.853s"/><rect class="c e" x="237" y="113" width="13" height="13" rx="2.5" fill="#161b22" style="animation-delay:0.889s"/><rect class="c e" x="237" y="129" width="13" height="13" rx="2.5" fill="#161b22" style="animation-delay:0.924s"/><rect class="c e" x="237" y="145" width="13" height="13" rx="2.5" fill="#161b22" style="animation-delay:0.96s"/><rect class="c e" x="237" y="161" width="13" height="13" rx="2.5" fill="#161b22" style="animation-delay:0.996s"/><rect class="c e" x="253" y="65" width="13" height="13" rx="2.5" fill="#161b22" style="animation-delay:0.846s"/><rect class="c e" x="253" y="81" width="13" height="13" rx="2.5" fill="#161b22" style="animation-delay:0.882s"/><rect class="c g" x="253" y="97" width="13" height="13" rx="2.5" fill="#0e4429" style="animation-delay:0.918s"/><rect class="c e" x="253" y="113" width="13" height="13" rx="2.5" fill="#161b22" style="animation-delay:0.954s"/><rect class="c e" x="253" y="129" width="13" height="13" rx="2.5" fill="#161b22" style="animation-delay:0.99s"/><rect class="c g" x="253" y="145" width="13" height="13" rx="2.5" fill="#0e4429" style="animation-delay:1.025s"/><rect class="c e" x="253" y="161" width="13" height="13" rx="2.5" fill="#161b22" style="animation-delay:1.061s"/><rect class="c e" x="269" y="65" width="13" height="13" rx="2.5" fill="#161b22" style="animation-delay:0.911s"/><rect class="c e" x="269" y="81" width="13" height="13" rx="2.5" fill="#161b22" style="animation-delay:0.947s"/><rect class="c e" x="269" y="97" width="13" height="13" rx="2.5" fill="#161b22" style="animation-delay:0.983s"/><rect class="c e" x="269" y="113" width="13" height="13" rx="2.5" fill="#161b22" style="animation-delay:1.019s"/><rect class="c e" x="269" y="129" width="13" height="13" rx="2.5" fill="#161b22" style="animation-delay:1.055s"/><rect class="c e" x="269" y="145" width="13" height="13" rx="2.5" fill="#161b22" style="animation-delay:1.09s"/><rect class="c e" x="269" y="161" width="13" height="13" rx="2.5" fill="#161b22" style="animation-delay:1.126s"/><rect class="c e" x="285" y="65" width="13" height="13" rx="2.5" fill="#161b22" style="animation-delay:0.976s"/><rect class="c g" x="285" y="81" width="13" height="13" rx="2.5" fill="#0e4429" style="animation-delay:1.012s"/><rect class="c g" x="285" y="97" width="13" height="13" rx="2.5" fill="#006d32" style="animation-delay:1.048s"/><rect class="c e" x="285" y="113" width="13" height="13" rx="2.5" fill="#161b22" style="animation-delay:1.084s"/><rect class="c e" x="285" y="129" width="13" height="13" rx="2.5" fill="#161b22" style="animation-delay:1.12s"/><rect class="c g" x="285" y="145" width="13" height="13" rx="2.5" fill="#0e4429" style="animation-delay:1.156s"/><rect class="c g" x="285" y="161" width="13" height="13" rx="2.5" fill="#006d32" style="animation-delay:1.191s"/><rect class="c g" x="301" y="65" width="13" height="13" rx="2.5" fill="#0e4429" style="animation-delay:1.042s"/><rect class="c e" x="301" y="81" width="13" height="13" rx="2.5" fill="#161b22" style="animation-delay:1.077s"/><rect class="c g" x="301" y="97" width="13" height="13" rx="2.5" fill="#0e4429" style="animation-delay:1.113s"/><rect class="c e" x="301" y="113" width="13" height="13" rx="2.5" fill="#161b22" style="animation-delay:1.149s"/><rect class="c g" x="301" y="129" width="13" height="13" rx="2.5" fill="#0e4429" style="animation-delay:1.185s"/><rect class="c e" x="301" y="145" width="13" height="13" rx="2.5" fill="#161b22" style="animation-delay:1.221s"/><rect class="c e" x="301" y="161" width="13" height="13" rx="2.5" fill="#161b22" style="animation-delay:1.256s"/><rect class="c e" x="317" y="65" width="13" height="13" rx="2.5" fill="#161b22" style="animation-delay:1.107s"/><rect class="c e" x="317" y="81" width="13" height="13" rx="2.5" fill="#161b22" style="animation-delay:1.142s"/><rect class="c e" x="317" y="97" width="13" height="13" rx="2.5" fill="#161b22" style="animation-delay:1.178s"/><rect class="c e" x="317" y="113" width="13" height="13" rx="2.5" fill="#161b22" style="animation-delay:1.214s"/><rect class="c g" x="317" y="129" width="13" height="13" rx="2.5" fill="#0e4429" style="animation-delay:1.25s"/><rect class="c g" x="317" y="145" width="13" height="13" rx="2.5" fill="#0e4429" style="animation-delay:1.286s"/><rect class="c e" x="317" y="161" width="13" height="13" rx="2.5" fill="#161b22" style="animation-delay:1.322s"/><rect class="c g" x="333" y="65" width="13" height="13" rx="2.5" fill="#0e4429" style="animation-delay:1.172s"/><rect class="c g" x="333" y="81" width="13" height="13" rx="2.5" fill="#26a641" style="animation-delay:1.208s"/><rect class="c g" x="333" y="97" width="13" height="13" rx="2.5" fill="#006d32" style="animation-delay:1.243s"/><rect class="c g" x="333" y="113" width="13" height="13" rx="2.5" fill="#0e4429" style="animation-delay:1.279s"/><rect class="c e" x="333" y="129" width="13" height="13" rx="2.5" fill="#161b22" style="animation-delay:1.315s"/><rect class="c e" x="333" y="145" width="13" height="13" rx="2.5" fill="#161b22" style="animation-delay:1.351s"/><rect class="c e" x="333" y="161" width="13" height="13" rx="2.5" fill="#161b22" style="animation-delay:1.387s"/><rect class="c e" x="349" y="65" width="13" height="13" rx="2.5" fill="#161b22" style="animation-delay:1.237s"/><rect class="c e" x="349" y="81" width="13" height="13" rx="2.5" fill="#161b22" style="animation-delay:1.273s"/><rect class="c e" x="349" y="97" width="13" height="13" rx="2.5" fill="#161b22" style="animation-delay:1.308s"/><rect class="c e" x="349" y="113" width="13" height="13" rx="2.5" fill="#161b22" style="animation-delay:1.344s"/><rect class="c e" x="349" y="129" width="13" height="13" rx="2.5" fill="#161b22" style="animation-delay:1.38s"/><rect class="c e" x="349" y="145" width="13" height="13" rx="2.5" fill="#161b22" style="animation-delay:1.416s"/><rect class="c e" x="349" y="161" width="13" height="13" rx="2.5" fill="#161b22" style="animation-delay:1.452s"/><rect class="c e" x="365" y="65" width="13" height="13" rx="2.5" fill="#161b22" style="animation-delay:1.302s"/><rect class="c e" x="365" y="81" width="13" height="13" rx="2.5" fill="#161b22" style="animation-delay:1.338s"/><rect class="c g" x="365" y="97" width="13" height="13" rx="2.5" fill="#0e4429" style="animation-delay:1.374s"/><rect class="c e" x="365" y="113" width="13" height="13" rx="2.5" fill="#161b22" style="animation-delay:1.409s"/><rect class="c e" x="365" y="129" width="13" height="13" rx="2.5" fill="#161b22" style="animation-delay:1.445s"/><rect class="c e" x="365" y="145" width="13" height="13" rx="2.5" fill="#161b22" style="animation-delay:1.481s"/><rect class="c e" x="365" y="161" width="13" height="13" rx="2.5" fill="#161b22" style="animation-delay:1.517s"/><rect class="c e" x="381" y="65" width="13" height="13" rx="2.5" fill="#161b22" style="animation-delay:1.367s"/><rect class="c e" x="381" y="81" width="13" height="13" rx="2.5" fill="#161b22" style="animation-delay:1.403s"/><rect class="c e" x="381" y="97" width="13" height="13" rx="2.5" fill="#161b22" style="animation-delay:1.439s"/><rect class="c e" x="381" y="113" width="13" height="13" rx="2.5" fill="#161b22" style="animation-delay:1.475s"/><rect class="c e" x="381" y="129" width="13" height="13" rx="2.5" fill="#161b22" style="animation-delay:1.51s"/><rect class="c e" x="381" y="145" width="13" height="13" rx="2.5" fill="#161b22" style="animation-delay:1.546s"/><rect class="c e" x="381" y="161" width="13" height="13" rx="2.5" fill="#161b22" style="animation-delay:1.582s"/><rect class="c g" x="397" y="65" width="13" height="13" rx="2.5" fill="#006d32" style="animation-delay:1.432s"/><rect class="c g" x="397" y="81" width="13" height="13" rx="2.5" fill="#006d32" style="animation-delay:1.468s"/><rect class="c e" x="397" y="97" width="13" height="13" rx="2.5" fill="#161b22" style="animation-delay:1.504s"/><rect class="c e" x="397" y="113" width="13" height="13" rx="2.5" fill="#161b22" style="animation-delay:1.54s"/><rect class="c e" x="397" y="129" width="13" height="13" rx="2.5" fill="#161b22" style="animation-delay:1.575s"/><rect class="c g" x="397" y="145" width="13" height="13" rx="2.5" fill="#0e4429" style="animation-delay:1.611s"/><rect class="c e" x="397" y="161" width="13" height="13" rx="2.5" fill="#161b22" style="animation-delay:1.647s"/><rect class="c e" x="413" y="65" width="13" height="13" rx="2.5" fill="#161b22" style="animation-delay:1.497s"/><rect class="c e" x="413" y="81" width="13" height="13" rx="2.5" fill="#161b22" style="animation-delay:1.533s"/><rect class="c e" x="413" y="97" width="13" height="13" rx="2.5" fill="#161b22" style="animation-delay:1.569s"/><rect class="c e" x="413" y="113" width="13" height="13" rx="2.5" fill="#161b22" style="animation-delay:1.605s"/><rect class="c e" x="413" y="129" width="13" height="13" rx="2.5" fill="#161b22" style="animation-delay:1.641s"/><rect class="c e" x="413" y="145" width="13" height="13" rx="2.5" fill="#161b22" style="animation-delay:1.676s"/><rect class="c e" x="413" y="161" width="13" height="13" rx="2.5" fill="#161b22" style="animation-delay:1.712s"/><rect class="c e" x="429" y="65" width="13" height="13" rx="2.5" fill="#161b22" style="animation-delay:1.562s"/><rect class="c g" x="429" y="81" width="13" height="13" rx="2.5" fill="#0e4429" style="animation-delay:1.598s"/><rect class="c e" x="429" y="97" width="13" height="13" rx="2.5" fill="#161b22" style="animation-delay:1.634s"/><rect class="c g" x="429" y="113" width="13" height="13" rx="2.5" fill="#0e4429" style="animation-delay:1.67s"/><rect class="c e" x="429" y="129" width="13" height="13" rx="2.5" fill="#161b22" style="animation-delay:1.706s"/><rect class="c e" x="429" y="145" width="13" height="13" rx="2.5" fill="#161b22" style="animation-delay:1.741s"/><rect class="c e" x="429" y="161" width="13" height="13" rx="2.5" fill="#161b22" style="animation-delay:1.777s"/><rect class="c e" x="445" y="65" width="13" height="13" rx="2.5" fill="#161b22" style="animation-delay:1.627s"/><rect class="c e" x="445" y="81" width="13" height="13" rx="2.5" fill="#161b22" style="animation-delay:1.663s"/><rect class="c e" x="445" y="97" width="13" height="13" rx="2.5" fill="#161b22" style="animation-delay:1.699s"/><rect class="c e" x="445" y="113" width="13" height="13" rx="2.5" fill="#161b22" style="animation-delay:1.735s"/><rect class="c e" x="445" y="129" width="13" height="13" rx="2.5" fill="#161b22" style="animation-delay:1.771s"/><rect class="c e" x="445" y="145" width="13" height="13" rx="2.5" fill="#161b22" style="animation-delay:1.807s"/><rect class="c e" x="445" y="161" width="13" height="13" rx="2.5" fill="#161b22" style="animation-delay:1.842s"/><rect class="c e" x="461" y="65" width="13" height="13" rx="2.5" fill="#161b22" style="animation-delay:1.693s"/><rect class="c e" x="461" y="81" width="13" height="13" rx="2.5" fill="#161b22" style="animation-delay:1.728s"/><rect class="c g" x="461" y="97" width="13" height="13" rx="2.5" fill="#0e4429" style="animation-delay:1.764s"/><rect class="c e" x="461" y="113" width="13" height="13" rx="2.5" fill="#161b22" style="animation-delay:1.8s"/><rect class="c g" x="461" y="129" width="13" height="13" rx="2.5" fill="#0e4429" style="animation-delay:1.836s"/><rect class="c e" x="461" y="145" width="13" height="13" rx="2.5" fill="#161b22" style="animation-delay:1.872s"/><rect class="c e" x="461" y="161" width="13" height="13" rx="2.5" fill="#161b22" style="animation-delay:1.907s"/><rect class="c e" x="477" y="65" width="13" height="13" rx="2.5" fill="#161b22" style="animation-delay:1.758s"/><rect class="c e" x="477" y="81" width="13" height="13" rx="2.5" fill="#161b22" style="animation-delay:1.793s"/><rect class="c e" x="477" y="97" width="13" height="13" rx="2.5" fill="#161b22" style="animation-delay:1.829s"/><rect class="c e" x="477" y="113" width="13" height="13" rx="2.5" fill="#161b22" style="animation-delay:1.865s"/><rect class="c e" x="477" y="129" width="13" height="13" rx="2.5" fill="#161b22" style="animation-delay:1.901s"/><rect class="c e" x="477" y="145" width="13" height="13" rx="2.5" fill="#161b22" style="animation-delay:1.937s"/><rect class="c e" x="477" y="161" width="13" height="13" rx="2.5" fill="#161b22" style="animation-delay:1.973s"/><rect class="c g" x="493" y="65" width="13" height="13" rx="2.5" fill="#006d32" style="animation-delay:1.823s"/><rect class="c e" x="493" y="81" width="13" height="13" rx="2.5" fill="#161b22" style="animation-delay:1.859s"/><rect class="c e" x="493" y="97" width="13" height="13" rx="2.5" fill="#161b22" style="animation-delay:1.894s"/><rect class="c e" x="493" y="113" width="13" height="13" rx="2.5" fill="#161b22" style="animation-delay:1.93s"/><rect class="c e" x="493" y="129" width="13" height="13" rx="2.5" fill="#161b22" style="animation-delay:1.966s"/><rect class="c e" x="493" y="145" width="13" height="13" rx="2.5" fill="#161b22" style="animation-delay:2.002s"/><rect class="c e" x="493" y="161" width="13" height="13" rx="2.5" fill="#161b22" style="animation-delay:2.038s"/><rect class="c g" x="509" y="65" width="13" height="13" rx="2.5" fill="#0e4429" style="animation-delay:1.888s"/><rect class="c g" x="509" y="81" width="13" height="13" rx="2.5" fill="#0e4429" style="animation-delay:1.924s"/><rect class="c e" x="509" y="97" width="13" height="13" rx="2.5" fill="#161b22" style="animation-delay:1.959s"/><rect class="c e" x="509" y="113" width="13" height="13" rx="2.5" fill="#161b22" style="animation-delay:1.995s"/><rect class="c g" x="509" y="129" width="13" height="13" rx="2.5" fill="#26a641" style="animation-delay:2.031s"/><rect class="c e" x="509" y="145" width="13" height="13" rx="2.5" fill="#161b22" style="animation-delay:2.067s"/><rect class="c g" x="509" y="161" width="13" height="13" rx="2.5" fill="#0e4429" style="animation-delay:2.103s"/><rect class="c g" x="525" y="65" width="13" height="13" rx="2.5" fill="#006d32" style="animation-delay:1.953s"/><rect class="c g" x="525" y="81" width="13" height="13" rx="2.5" fill="#0e4429" style="animation-delay:1.989s"/><rect class="c g" x="525" y="97" width="13" height="13" rx="2.5" fill="#0e4429" style="animation-delay:2.025s"/><rect class="c e" x="525" y="113" width="13" height="13" rx="2.5" fill="#161b22" style="animation-delay:2.06s"/><rect class="c e" x="525" y="129" width="13" height="13" rx="2.5" fill="#161b22" style="animation-delay:2.096s"/><rect class="c g" x="525" y="145" width="13" height="13" rx="2.5" fill="#006d32" style="animation-delay:2.132s"/><rect class="c g" x="525" y="161" width="13" height="13" rx="2.5" fill="#006d32" style="animation-delay:2.168s"/><rect class="c g" x="541" y="65" width="13" height="13" rx="2.5" fill="#006d32" style="animation-delay:2.018s"/><rect class="c g" x="541" y="81" width="13" height="13" rx="2.5" fill="#0e4429" style="animation-delay:2.054s"/><rect class="c e" x="541" y="97" width="13" height="13" rx="2.5" fill="#161b22" style="animation-delay:2.09s"/><rect class="c g" x="541" y="113" width="13" height="13" rx="2.5" fill="#0e4429" style="animation-delay:2.125s"/><rect class="c e" x="541" y="129" width="13" height="13" rx="2.5" fill="#161b22" style="animation-delay:2.161s"/><rect class="c e" x="541" y="145" width="13" height="13" rx="2.5" fill="#161b22" style="animation-delay:2.197s"/><rect class="c e" x="541" y="161" width="13" height="13" rx="2.5" fill="#161b22" style="animation-delay:2.233s"/><rect class="c g" x="557" y="65" width="13" height="13" rx="2.5" fill="#006d32" style="animation-delay:2.083s"/><rect class="c g" x="557" y="81" width="13" height="13" rx="2.5" fill="#0e4429" style="animation-delay:2.119s"/><rect class="c g" x="557" y="97" width="13" height="13" rx="2.5" fill="#0e4429" style="animation-delay:2.155s"/><rect class="c e" x="557" y="113" width="13" height="13" rx="2.5" fill="#161b22" style="animation-delay:2.191s"/><rect class="c e" x="557" y="129" width="13" height="13" rx="2.5" fill="#161b22" style="animation-delay:2.226s"/><rect class="c g" x="557" y="145" width="13" height="13" rx="2.5" fill="#26a641" style="animation-delay:2.262s"/><rect class="c g" x="557" y="161" width="13" height="13" rx="2.5" fill="#0e4429" style="animation-delay:2.298s"/><rect class="c e" x="573" y="65" width="13" height="13" rx="2.5" fill="#161b22" style="animation-delay:2.148s"/><rect class="c g" x="573" y="81" width="13" height="13" rx="2.5" fill="#006d32" style="animation-delay:2.184s"/><rect class="c g" x="573" y="97" width="13" height="13" rx="2.5" fill="#0e4429" style="animation-delay:2.22s"/><rect class="c e" x="573" y="113" width="13" height="13" rx="2.5" fill="#161b22" style="animation-delay:2.256s"/><rect class="c e" x="573" y="129" width="13" height="13" rx="2.5" fill="#161b22" style="animation-delay:2.292s"/><rect class="c g" x="573" y="145" width="13" height="13" rx="2.5" fill="#0e4429" style="animation-delay:2.327s"/><rect class="c g" x="573" y="161" width="13" height="13" rx="2.5" fill="#0e4429" style="animation-delay:2.363s"/><rect class="c e" x="589" y="65" width="13" height="13" rx="2.5" fill="#161b22" style="animation-delay:2.213s"/><rect class="c e" x="589" y="81" width="13" height="13" rx="2.5" fill="#161b22" style="animation-delay:2.249s"/><rect class="c e" x="589" y="97" width="13" height="13" rx="2.5" fill="#161b22" style="animation-delay:2.285s"/><rect class="c e" x="589" y="113" width="13" height="13" rx="2.5" fill="#161b22" style="animation-delay:2.321s"/><rect class="c e" x="589" y="129" width="13" height="13" rx="2.5" fill="#161b22" style="animation-delay:2.357s"/><rect class="c e" x="589" y="145" width="13" height="13" rx="2.5" fill="#161b22" style="animation-delay:2.392s"/><rect class="c g" x="589" y="161" width="13" height="13" rx="2.5" fill="#006d32" style="animation-delay:2.428s"/><rect class="c g" x="605" y="65" width="13" height="13" rx="2.5" fill="#0e4429" style="animation-delay:2.278s"/><rect class="c e" x="605" y="81" width="13" height="13" rx="2.5" fill="#161b22" style="animation-delay:2.314s"/><rect class="c g" x="605" y="97" width="13" height="13" rx="2.5" fill="#0e4429" style="animation-delay:2.35s"/><rect class="c e" x="605" y="113" width="13" height="13" rx="2.5" fill="#161b22" style="animation-delay:2.386s"/><rect class="c e" x="605" y="129" width="13" height="13" rx="2.5" fill="#161b22" style="animation-delay:2.422s"/><rect class="c g" x="605" y="145" width="13" height="13" rx="2.5" fill="#0e4429" style="animation-delay:2.458s"/><rect class="c e" x="605" y="161" width="13" height="13" rx="2.5" fill="#161b22" style="animation-delay:2.493s"/><rect class="c g" x="621" y="65" width="13" height="13" rx="2.5" fill="#0e4429" style="animation-delay:2.344s"/><rect class="c g" x="621" y="81" width="13" height="13" rx="2.5" fill="#26a641" style="animation-delay:2.379s"/><rect class="c g" x="621" y="97" width="13" height="13" rx="2.5" fill="#0e4429" style="animation-delay:2.415s"/><rect class="c g" x="621" y="113" width="13" height="13" rx="2.5" fill="#0e4429" style="animation-delay:2.451s"/><rect class="c e" x="621" y="129" width="13" height="13" rx="2.5" fill="#161b22" style="animation-delay:2.487s"/><rect class="c g" x="621" y="145" width="13" height="13" rx="2.5" fill="#0e4429" style="animation-delay:2.523s"/><rect class="c g" x="621" y="161" width="13" height="13" rx="2.5" fill="#0e4429" style="animation-delay:2.558s"/><rect class="c g" x="637" y="65" width="13" height="13" rx="2.5" fill="#26a641" style="animation-delay:2.409s"/><rect class="c g" x="637" y="81" width="13" height="13" rx="2.5" fill="#0e4429" style="animation-delay:2.444s"/><rect class="c g" x="637" y="97" width="13" height="13" rx="2.5" fill="#0e4429" style="animation-delay:2.48s"/><rect class="c g" x="637" y="113" width="13" height="13" rx="2.5" fill="#0e4429" style="animation-delay:2.516s"/><rect class="c e" x="637" y="129" width="13" height="13" rx="2.5" fill="#161b22" style="animation-delay:2.552s"/><rect class="c g" x="637" y="145" width="13" height="13" rx="2.5" fill="#0e4429" style="animation-delay:2.588s"/><rect class="c e" x="637" y="161" width="13" height="13" rx="2.5" fill="#161b22" style="animation-delay:2.624s"/><rect class="c g" x="653" y="65" width="13" height="13" rx="2.5" fill="#0e4429" style="animation-delay:2.474s"/><rect class="c e" x="653" y="81" width="13" height="13" rx="2.5" fill="#161b22" style="animation-delay:2.51s"/><rect class="c g" x="653" y="97" width="13" height="13" rx="2.5" fill="#0e4429" style="animation-delay:2.545s"/><rect class="c e" x="653" y="113" width="13" height="13" rx="2.5" fill="#161b22" style="animation-delay:2.581s"/><rect class="c e" x="653" y="129" width="13" height="13" rx="2.5" fill="#161b22" style="animation-delay:2.617s"/><rect class="c e" x="653" y="145" width="13" height="13" rx="2.5" fill="#161b22" style="animation-delay:2.653s"/><rect class="c e" x="653" y="161" width="13" height="13" rx="2.5" fill="#161b22" style="animation-delay:2.689s"/><rect class="c e" x="669" y="65" width="13" height="13" rx="2.5" fill="#161b22" style="animation-delay:2.539s"/><rect class="c e" x="669" y="81" width="13" height="13" rx="2.5" fill="#161b22" style="animation-delay:2.575s"/><rect class="c e" x="669" y="97" width="13" height="13" rx="2.5" fill="#161b22" style="animation-delay:2.61s"/><rect class="c e" x="669" y="113" width="13" height="13" rx="2.5" fill="#161b22" style="animation-delay:2.646s"/><rect class="c e" x="669" y="129" width="13" height="13" rx="2.5" fill="#161b22" style="animation-delay:2.682s"/><rect class="c e" x="669" y="145" width="13" height="13" rx="2.5" fill="#161b22" style="animation-delay:2.718s"/><rect class="c e" x="669" y="161" width="13" height="13" rx="2.5" fill="#161b22" style="animation-delay:2.754s"/><rect class="c e" x="685" y="65" width="13" height="13" rx="2.5" fill="#161b22" style="animation-delay:2.604s"/><rect class="c e" x="685" y="81" width="13" height="13" rx="2.5" fill="#161b22" style="animation-delay:2.64s"/><rect class="c e" x="685" y="97" width="13" height="13" rx="2.5" fill="#161b22" style="animation-delay:2.676s"/><rect class="c g" x="685" y="113" width="13" height="13" rx="2.5" fill="#0e4429" style="animation-delay:2.711s"/><rect class="c e" x="685" y="129" width="13" height="13" rx="2.5" fill="#161b22" style="animation-delay:2.747s"/><rect class="c e" x="685" y="145" width="13" height="13" rx="2.5" fill="#161b22" style="animation-delay:2.783s"/><rect class="c e" x="685" y="161" width="13" height="13" rx="2.5" fill="#161b22" style="animation-delay:2.819s"/><rect class="c g" x="701" y="65" width="13" height="13" rx="2.5" fill="#0e4429" style="animation-delay:2.669s"/><rect class="c e" x="701" y="81" width="13" height="13" rx="2.5" fill="#161b22" style="animation-delay:2.705s"/><rect class="c e" x="701" y="97" width="13" height="13" rx="2.5" fill="#161b22" style="animation-delay:2.741s"/><rect class="c e" x="701" y="113" width="13" height="13" rx="2.5" fill="#161b22" style="animation-delay:2.776s"/><rect class="c e" x="701" y="129" width="13" height="13" rx="2.5" fill="#161b22" style="animation-delay:2.812s"/><rect class="c g" x="701" y="145" width="13" height="13" rx="2.5" fill="#0e4429" style="animation-delay:2.848s"/><rect class="c e" x="701" y="161" width="13" height="13" rx="2.5" fill="#161b22" style="animation-delay:2.884s"/><rect class="c e" x="717" y="65" width="13" height="13" rx="2.5" fill="#161b22" style="animation-delay:2.734s"/><rect class="c e" x="717" y="81" width="13" height="13" rx="2.5" fill="#161b22" style="animation-delay:2.77s"/><rect class="c e" x="717" y="97" width="13" height="13" rx="2.5" fill="#161b22" style="animation-delay:2.806s"/><rect class="c e" x="717" y="113" width="13" height="13" rx="2.5" fill="#161b22" style="animation-delay:2.842s"/><rect class="c e" x="717" y="129" width="13" height="13" rx="2.5" fill="#161b22" style="animation-delay:2.877s"/><rect class="c e" x="717" y="145" width="13" height="13" rx="2.5" fill="#161b22" style="animation-delay:2.913s"/><rect class="c g" x="717" y="161" width="13" height="13" rx="2.5" fill="#0e4429" style="animation-delay:2.949s"/><rect class="c g" x="733" y="65" width="13" height="13" rx="2.5" fill="#39d353" style="animation-delay:2.799s"/><rect class="c e" x="733" y="81" width="13" height="13" rx="2.5" fill="#161b22" style="animation-delay:2.835s"/><rect class="c g" x="733" y="97" width="13" height="13" rx="2.5" fill="#0e4429" style="animation-delay:2.871s"/><rect class="c e" x="733" y="113" width="13" height="13" rx="2.5" fill="#161b22" style="animation-delay:2.907s"/><rect class="c e" x="733" y="129" width="13" height="13" rx="2.5" fill="#161b22" style="animation-delay:2.942s"/><rect class="c g" x="733" y="145" width="13" height="13" rx="2.5" fill="#0e4429" style="animation-delay:2.978s"/><rect class="c g" x="733" y="161" width="13" height="13" rx="2.5" fill="#0e4429" style="animation-delay:3.014s"/><rect class="c e" x="749" y="65" width="13" height="13" rx="2.5" fill="#161b22" style="animation-delay:2.864s"/><rect class="c g" x="749" y="81" width="13" height="13" rx="2.5" fill="#0e4429" style="animation-delay:2.9s"/><rect class="c e" x="749" y="97" width="13" height="13" rx="2.5" fill="#161b22" style="animation-delay:2.936s"/><rect class="c e" x="749" y="113" width="13" height="13" rx="2.5" fill="#161b22" style="animation-delay:2.972s"/><rect class="c e" x="749" y="129" width="13" height="13" rx="2.5" fill="#161b22" style="animation-delay:3.008s"/><rect class="c g" x="749" y="145" width="13" height="13" rx="2.5" fill="#0e4429" style="animation-delay:3.043s"/><rect class="c g" x="749" y="161" width="13" height="13" rx="2.5" fill="#006d32" style="animation-delay:3.079s"/><rect class="c g" x="765" y="65" width="13" height="13" rx="2.5" fill="#006d32" style="animation-delay:2.929s"/><rect class="c g" x="765" y="81" width="13" height="13" rx="2.5" fill="#0e4429" style="animation-delay:2.965s"/><rect class="c g" x="765" y="97" width="13" height="13" rx="2.5" fill="#0e4429" style="animation-delay:3.001s"/><rect class="c e" x="765" y="113" width="13" height="13" rx="2.5" fill="#161b22" style="animation-delay:3.037s"/><rect class="c e" x="765" y="129" width="13" height="13" rx="2.5" fill="#161b22" style="animation-delay:3.073s"/><rect class="c g" x="765" y="145" width="13" height="13" rx="2.5" fill="#0e4429" style="animation-delay:3.108s"/><rect class="c e" x="765" y="161" width="13" height="13" rx="2.5" fill="#161b22" style="animation-delay:3.144s"/><rect class="c e" x="781" y="65" width="13" height="13" rx="2.5" fill="#161b22" style="animation-delay:2.995s"/><rect class="c e" x="781" y="81" width="13" height="13" rx="2.5" fill="#161b22" style="animation-delay:3.03s"/><rect class="c g" x="781" y="97" width="13" height="13" rx="2.5" fill="#006d32" style="animation-delay:3.066s"/><rect class="c g" x="781" y="113" width="13" height="13" rx="2.5" fill="#0e4429" style="animation-delay:3.102s"/><rect class="c g" x="781" y="129" width="13" height="13" rx="2.5" fill="#0e4429" style="animation-delay:3.138s"/><rect class="c g" x="781" y="145" width="13" height="13" rx="2.5" fill="#39d353" style="animation-delay:3.174s"/><rect class="c g" x="781" y="161" width="13" height="13" rx="2.5" fill="#0e4429" style="animation-delay:3.209s"/><rect class="c g" x="797" y="65" width="13" height="13" rx="2.5" fill="#006d32" style="animation-delay:3.06s"/><rect class="c g" x="797" y="81" width="13" height="13" rx="2.5" fill="#26a641" style="animation-delay:3.095s"/><rect class="c g" x="797" y="97" width="13" height="13" rx="2.5" fill="#0e4429" style="animation-delay:3.131s"/><rect class="c e" x="797" y="113" width="13" height="13" rx="2.5" fill="#161b22" style="animation-delay:3.167s"/><rect class="c e" x="797" y="129" width="13" height="13" rx="2.5" fill="#161b22" style="animation-delay:3.203s"/><rect class="c e" x="797" y="145" width="13" height="13" rx="2.5" fill="#161b22" style="animation-delay:3.239s"/><rect class="c e" x="797" y="161" width="13" height="13" rx="2.5" fill="#161b22" style="animation-delay:3.275s"/><rect class="c e" x="813" y="65" width="13" height="13" rx="2.5" fill="#161b22" style="animation-delay:3.125s"/><rect class="c e" x="813" y="81" width="13" height="13" rx="2.5" fill="#161b22" style="animation-delay:3.161s"/><rect class="c e" x="813" y="97" width="13" height="13" rx="2.5" fill="#161b22" style="animation-delay:3.196s"/><rect class="c e" x="813" y="113" width="13" height="13" rx="2.5" fill="#161b22" style="animation-delay:3.232s"/><rect class="c e" x="813" y="129" width="13" height="13" rx="2.5" fill="#161b22" style="animation-delay:3.268s"/><rect class="c e" x="813" y="145" width="13" height="13" rx="2.5" fill="#161b22" style="animation-delay:3.304s"/><rect class="c e" x="813" y="161" width="13" height="13" rx="2.5" fill="#161b22" style="animation-delay:3.34s"/><rect class="c e" x="829" y="65" width="13" height="13" rx="2.5" fill="#161b22" style="animation-delay:3.19s"/><rect class="c e" x="829" y="81" width="13" height="13" rx="2.5" fill="#161b22" style="animation-delay:3.226s"/><rect class="c e" x="829" y="97" width="13" height="13" rx="2.5" fill="#161b22" style="animation-delay:3.261s"/><rect class="c e" x="829" y="113" width="13" height="13" rx="2.5" fill="#161b22" style="animation-delay:3.297s"/><rect class="c e" x="829" y="129" width="13" height="13" rx="2.5" fill="#161b22" style="animation-delay:3.333s"/><rect class="c e" x="829" y="145" width="13" height="13" rx="2.5" fill="#161b22" style="animation-delay:3.369s"/><rect class="c e" x="829" y="161" width="13" height="13" rx="2.5" fill="#161b22" style="animation-delay:3.405s"/><rect class="c g" x="845" y="65" width="13" height="13" rx="2.5" fill="#0e4429" style="animation-delay:3.255s"/><rect class="c e" x="845" y="81" width="13" height="13" rx="2.5" fill="#161b22" style="animation-delay:3.291s"/><rect class="c g" x="845" y="97" width="13" height="13" rx="2.5" fill="#26a641" style="animation-delay:3.327s"/><rect class="c e" x="845" y="113" width="13" height="13" rx="2.5" fill="#161b22" style="animation-delay:3.362s"/><rect class="c e" x="845" y="129" width="13" height="13" rx="2.5" fill="#161b22" style="animation-delay:3.398s"/><rect class="c e" x="845" y="145" width="13" height="13" rx="2.5" fill="#161b22" style="animation-delay:3.434s"/><rect class="c g" x="845" y="161" width="13" height="13" rx="2.5" fill="#0e4429" style="animation-delay:3.47s"/><rect class="c g" x="861" y="65" width="13" height="13" rx="2.5" fill="#26a641" style="animation-delay:3.32s"/><rect class="c g" x="861" y="81" width="13" height="13" rx="2.5" fill="#0e4429" style="animation-delay:3.356s"/><rect class="c e" x="861" y="97" width="13" height="13" rx="2.5" fill="#161b22" style="animation-delay:3.392s"/><rect class="c g" x="861" y="113" width="13" height="13" rx="2.5" fill="#0e4429" style="animation-delay:3.427s"/><rect class="c g" x="861" y="129" width="13" height="13" rx="2.5" fill="#39d353" style="animation-delay:3.463s"/><rect class="c e" x="861" y="145" width="13" height="13" rx="2.5" fill="#161b22" style="animation-delay:3.499s"/><rect class="c g" x="861" y="161" width="13" height="13" rx="2.5" fill="#0e4429" style="animation-delay:3.535s"/><rect class="c g" x="877" y="65" width="13" height="13" rx="2.5" fill="#006d32" style="animation-delay:3.385s"/><rect class="c e" x="877" y="81" width="13" height="13" rx="2.5" fill="#161b22" style="animation-delay:3.421s"/><rect class="c e" x="877" y="97" width="13" height="13" rx="2.5" fill="#161b22" style="animation-delay:3.457s"/><rect class="c e" x="877" y="113" width="13" height="13" rx="2.5" fill="#161b22" style="animation-delay:3.493s"/><rect class="c e" x="877" y="129" width="13" height="13" rx="2.5" fill="#161b22" style="animation-delay:3.528s"/><rect class="c e" x="877" y="145" width="13" height="13" rx="2.5" fill="#161b22" style="animation-delay:3.564s"/><rect class="c g" x="877" y="161" width="13" height="13" rx="2.5" fill="#0e4429" style="animation-delay:3.6s"/>
</svg>